<?xml version="1.0" encoding="UTF-8"?>
<svg version="1.1" xmlns="http://www.w3.org/2000/svg" width="1024" height="1024">
<path d="M0 0 C0.00135653 1.02076685 0.00271306 2.04153369 0.00411069 3.09323287 C0.0640692 48.1136166 0.12648645 93.13399626 0.20132446 138.15435791 C0.20245809 138.83672921 0.20359171 139.51910052 0.20475969 140.22214974 C0.22941533 155.05452618 0.2545084 169.88690184 0.28005161 184.71927677 C0.29257666 191.99384063 0.30500513 199.26840464 0.31738281 206.54296875 C0.31861614 207.26684712 0.31984946 207.99072549 0.32112016 208.73653956 C0.36099789 232.1686173 0.3945067 255.60069884 0.42468691 279.03279091 C0.45575376 303.12702274 0.49329755 327.22123609 0.53890612 351.31544499 C0.54535583 354.72429648 0.55173205 358.1331481 0.55806351 361.54199982 C0.55931181 362.21286249 0.56056012 362.88372516 0.56184625 363.57491701 C0.58046619 373.67666835 0.59345249 383.77841698 0.60334396 393.88018036 C0.614659 405.38963699 0.63261567 416.89905899 0.65916704 428.40849099 C0.67249103 434.27614882 0.68269061 440.14376651 0.68421364 446.01144028 C0.68568257 451.39602599 0.6964088 456.78051527 0.71413441 462.16507128 C0.71893749 464.10080587 0.72050237 466.03655217 0.71827881 467.97229144 C0.69369558 493.60301459 1.91944544 520.48896782 20.83203125 540.0234375 C54.09146629 570.34645395 100.93197147 568.18641913 142.93530273 568.03881836 C155.85063397 567.99397326 168.76050372 567.96878756 181.67333984 568.26144409 C183.19439802 568.29482198 184.71556996 568.32344403 186.23681641 568.34671021 C210.56061921 568.73442414 210.56061921 568.73442414 219.4140625 576.26171875 C226.16661949 583.66292038 226.14979588 592.63747802 226.11352539 602.13623047 C226.11367142 603.1417244 226.11381744 604.14721832 226.1139679 605.18318176 C226.11327327 608.49453923 226.10550194 611.8058399 226.09765625 615.1171875 C226.09579047 617.41789723 226.09436732 619.71860736 226.09336853 622.01931763 C226.08955594 628.06584781 226.07973639 634.11235385 226.06866455 640.15887451 C226.05842338 646.33247552 226.05386511 652.50608044 226.04882812 658.6796875 C226.038113 670.78646892 226.02105168 682.89323245 226 695 C220.75542569 696.74819144 215.17676891 696.19093229 209.6875 696.1875 C209.02805389 696.18756042 208.36860779 696.18762085 207.68917847 696.18768311 C188.7146615 696.16314279 169.56810043 695.35521208 150.8125 692.3671875 C147.98699006 691.92528983 147.98699006 691.92528983 145.0625 692.0703125 C141.41356945 691.98653603 138.50314957 691.0366463 135 690 C133.26937913 689.64522958 131.53446184 689.31109599 129.796875 688.9921875 C113.83167606 686.05711466 98.45035037 681.96510583 83 677 C81.97567871 676.6709668 80.95135742 676.34193359 79.89599609 676.00292969 C66.17544813 671.53701711 53.00689202 666.24018807 40 660 C39.28763184 659.6596875 38.57526367 659.319375 37.84130859 658.96875 C29.40937201 654.9141348 21.20104975 650.5410898 13.13769531 645.79296875 C9.32708474 643.54978046 9.32708474 643.54978046 5 643 C5 642.34 5 641.68 5 641 C3.09658623 639.58732599 3.09658623 639.58732599 0.5625 638.125 C-17.25646776 627.08548527 -33.68985352 614.13012913 -49.45263672 600.35205078 C-50.79849513 599.17607037 -52.15065694 598.00731156 -53.50390625 596.83984375 C-59.10802947 591.91845636 -64.40370266 586.697499 -69.6875 581.4375 C-70.75738159 580.37462769 -70.75738159 580.37462769 -71.84887695 579.2902832 C-76.43586285 574.68943451 -80.78557372 569.94334646 -85 565 C-85.49894775 564.41742432 -85.99789551 563.83484863 -86.51196289 563.23461914 C-87.90883315 561.59809558 -89.29929377 559.95637587 -90.6875 558.3125 C-91.14705078 557.77044922 -91.60660156 557.22839844 -92.08007812 556.66992188 C-99.52854797 547.86138906 -99.52854797 547.86138906 -102.5625 543.125 C-104.42922668 540.2757856 -106.35469603 537.49996021 -108.41015625 534.78515625 C-113.91338602 527.50744039 -118.93526132 520.08247083 -123.625 512.25 C-124.40641357 510.94518677 -124.40641357 510.94518677 -125.20361328 509.61401367 C-128.8587542 503.4237374 -128.8587542 503.4237374 -130 500 C-130.66 499.67 -131.32 499.34 -132 499 C-132.97387695 497.30102539 -132.97387695 497.30102539 -133.98828125 495.09765625 C-134.36283447 494.29384521 -134.7373877 493.49003418 -135.12329102 492.66186523 C-135.71194946 491.37517944 -135.71194946 491.37517944 -136.3125 490.0625 C-137.11887928 488.32509708 -137.92616355 486.58811389 -138.734375 484.8515625 C-139.12302734 484.01399414 -139.51167969 483.17642578 -139.91210938 482.31347656 C-141.5947287 478.73526724 -143.39321912 475.21972499 -145.22265625 471.71484375 C-146 470 -146 470 -146 468 C-146.66 467.67 -147.32 467.34 -148 467 C-148.73950195 465.21044922 -148.73950195 465.21044922 -149.42578125 462.9296875 C-150.36559846 459.94369344 -151.34647823 457.02577447 -152.54296875 454.1328125 C-157.67852375 441.65027919 -161.46034751 428.84868296 -165.1496582 415.87402344 C-166.75763831 410.31597111 -166.75763831 410.31597111 -169 405 C-169.22910286 403.20863385 -169.45359236 401.41660715 -169.66064453 399.62255859 C-170.07003875 396.45873649 -170.59213318 393.32183924 -171.12109375 390.17578125 C-171.33443359 388.89767578 -171.54777344 387.61957031 -171.76757812 386.30273438 C-172.2044098 383.69227423 -172.64830732 381.0833119 -173.09570312 378.47460938 C-176.11929309 360.23319122 -177.38712564 342.10782995 -177.3125 323.625 C-177.31067719 322.67599823 -177.30885437 321.72699646 -177.30697632 320.74923706 C-177.13452801 266.97738401 -165.6991094 215.15689531 -144 166 C-143.63293945 165.16662109 -143.26587891 164.33324219 -142.88769531 163.47460938 C-130.95765048 136.689312 -115.29686388 111.8792627 -97 89 C-96.35160156 88.17113281 -95.70320313 87.34226562 -95.03515625 86.48828125 C-87.2301184 76.57636202 -79.1609181 66.69552387 -70 58 C-67.31363442 55.37333143 -65.08414306 53.12621459 -63 50 C-62.34 50 -61.68 50 -61 50 C-60.67 49.01 -60.34 48.02 -60 47 C-58.57421875 45.5625 -58.57421875 45.5625 -56.6875 44 C-53.62861681 41.41087387 -50.64256732 38.76756324 -47.70800781 36.0378418 C-38.7096216 27.67662455 -29.24776801 20.11217366 -19.375 12.8125 C-18.58730225 12.23008545 -17.79960449 11.6476709 -16.98803711 11.04760742 C-1.9219745 0 -1.9219745 0 0 0 Z " fill="#000000" transform="translate(308,168)"/>
<path d="M0 0 C0.7880166 26.23652873 1.1394151 52.44426618 1.08674753 78.69196808 C1.07810335 83.60703011 1.07568651 88.52209626 1.07249451 93.43716431 C1.066276 101.9035159 1.0565909 110.36985733 1.04459953 118.83620262 C1.0274265 131.09041182 1.01801442 143.34461866 1.0107208 155.59883729 C0.99885056 175.5119394 0.98392725 195.42503759 0.96557617 215.33813477 C0.96448605 216.52330365 0.96339593 217.70847254 0.96227277 218.92955563 C0.94997064 232.1851352 0.93640859 245.44071278 0.92095947 258.69628906 C0.91956502 259.89281392 0.91817057 261.08933878 0.91673386 262.32212197 C0.91391504 264.73663376 0.91109539 267.15114556 0.9082749 269.56565735 C0.90688158 270.7590124 0.90548827 271.95236745 0.90405273 273.18188477 C0.9026592 274.37375879 0.90126567 275.56563282 0.89982992 276.79362424 C0.87678463 296.67751875 0.86147984 316.56141034 0.85249335 336.44531614 C0.84665656 348.67185617 0.83433064 360.89835527 0.81352056 373.12487916 C0.79979777 381.48451229 0.79331877 389.84413115 0.79251044 398.20377543 C0.79180806 403.01974822 0.78784955 407.83565995 0.7750473 412.65161705 C0.76337576 417.06522118 0.76107174 421.47873064 0.76598949 425.89234654 C0.76613986 427.48222315 0.76294134 429.07210467 0.75591242 430.66196575 C0.67855515 449.12288453 2.57527465 464.57275481 15 479 C17.49054932 481.37052285 20.05763901 483.22913459 23 485 C24.10601562 485.67482422 24.10601562 485.67482422 25.234375 486.36328125 C36.29102682 492.48779917 48.62536769 493.40346067 61.00878906 494.09057617 C70.20264336 494.72788122 78.39281278 497.39793777 85.18359375 503.83203125 C102.64329218 524.67102615 98.48676173 560.47161191 99 586 C95.20629876 587.26456708 91.86536252 586.87000122 87.9453125 586.59155273 C79.38349339 586.04996483 70.83729202 585.76255244 62.26107788 585.58500862 C59.78244305 585.53322246 57.3039475 585.4768189 54.82543945 585.41929626 C47.79212989 585.25656313 40.75871422 585.09933444 33.72509766 584.95043945 C-0.40079018 584.2229109 -0.40079018 584.2229109 -15.9765625 583.046875 C-17.50095947 582.93286095 -17.50095947 582.93286095 -19.05615234 582.81654358 C-27.02836806 582.14564967 -34.4317608 580.67713724 -42 578 C-43.08410156 577.61714844 -44.16820312 577.23429688 -45.28515625 576.83984375 C-51.65864285 574.3836426 -56.7701664 571.35819466 -62 567 C-63.2684375 566.13375 -63.2684375 566.13375 -64.5625 565.25 C-77.21628016 553.56958755 -81.10315088 537.48851915 -82 521 C-82.17940132 514.23161252 -82.13094615 507.45902705 -82.12025452 500.68890381 C-82.12069105 498.62852123 -82.12156747 496.5681387 -82.12284368 494.50775647 C-82.1250725 488.86827935 -82.12108948 483.22882134 -82.11606562 477.58934665 C-82.11173811 471.49952112 -82.11320918 465.40969663 -82.1139679 459.31987 C-82.11449167 448.77619942 -82.11139518 438.23253433 -82.10573006 427.68886566 C-82.09980603 416.63491537 -82.0959627 405.58096755 -82.09487724 394.52701569 C-82.0948085 393.83882621 -82.09473976 393.15063674 -82.09466894 392.44159304 C-82.09433059 388.94639822 -82.09402921 385.4512034 -82.09374207 381.95600858 C-82.09164358 357.22181003 -82.08491162 332.4876147 -82.07543945 307.75341797 C-82.06624999 283.72965512 -82.05916884 259.70589316 -82.05493164 235.68212891 C-82.05480011 234.94116143 -82.05466859 234.20019396 -82.05453308 233.43677292 C-82.05321452 225.99543861 -82.05193871 218.55410428 -82.05069422 211.11276995 C-82.04815824 195.95492032 -82.04533699 180.79707074 -82.04234314 165.63922119 C-82.04220585 164.94234068 -82.04206856 164.24546016 -82.04192711 163.52746205 C-82.03273181 117.01830667 -82.0168664 70.50915317 -82 24 C-79.7547584 23.03215054 -77.5089812 22.06557863 -75.26287842 21.09973145 C-74.63038618 20.82692982 -73.99789394 20.55412819 -73.34623528 20.27305984 C-66.43314673 17.30285033 -59.3865981 14.86814663 -52.25 12.5 C-51.54387573 12.26388 -50.83775146 12.02776001 -50.11022949 11.78448486 C-36.59372097 7.28594004 -22.97117 3.81500271 -9 1 C-8.15405273 0.8138916 -7.30810547 0.6277832 -6.43652344 0.43603516 C-4 0 -4 0 0 0 Z " fill="#000000" transform="translate(436,119)"/>
<path d="M0 0 C0.77553223 0.23525391 1.55106445 0.47050781 2.35009766 0.71289062 C29.14664909 9.01867103 54.86890721 22.409056 76 41 C77.41925781 42.23943359 77.41925781 42.23943359 78.8671875 43.50390625 C106.0681153 67.64086157 125.43560426 99.58024769 134 135 C134.21027832 135.86947266 134.42055664 136.73894531 134.63720703 137.63476562 C140.13137633 161.62988664 140.86709321 190.00117762 135 214 C134.81195801 214.8132373 134.62391602 215.62647461 134.43017578 216.46435547 C126.04977925 251.88603152 105.13820166 282.59989981 74.23779297 302.11279297 C68.84817659 305.38841195 63.28707136 308.33604614 57.6953125 311.24609375 C44.65591792 317.69862094 44.65591792 317.69862094 33.3671875 326.6953125 C32 328 32 328 30 328 C29.73703125 328.56976562 29.4740625 329.13953125 29.203125 329.7265625 C27.91847651 332.15404764 26.40797952 334.18676577 24.75 336.375 C8.66219492 359.50539196 8.35486257 390.74197887 7.47290039 417.93383789 C7.44083754 418.92222536 7.44083754 418.92222536 7.40812695 419.93058026 C6.88396834 436.43179261 6.779896 452.9339381 6.69667697 469.4422214 C6.67429909 473.70352881 6.64717223 477.9648064 6.62062073 482.22608948 C6.57137421 490.23967392 6.52619306 498.25327552 6.48259836 506.26689249 C6.43263125 515.41376911 6.37794039 524.56061576 6.32291877 533.70746315 C6.21014798 552.47161408 6.10309469 571.23579353 6 590 C2.66970243 591.12619806 -0.66252982 592.24656455 -3.99511719 593.3659668 C-4.9290329 593.68186516 -5.86294861 593.99776352 -6.82516479 594.32323456 C-14.5556031 596.91486833 -22.29843495 598.99813737 -30.25 600.8125 C-31.46300781 601.09802734 -32.67601562 601.38355469 -33.92578125 601.67773438 C-40.2732994 603.16618939 -46.63256143 604.59943679 -53 606 C-54.08244071 602.75267786 -54.1178128 600.42483086 -54.10679626 597.00863647 C-54.10452278 595.12713646 -54.10452278 595.12713646 -54.10220337 593.20762634 C-54.09547265 591.81338465 -54.08866459 590.41914332 -54.08178711 589.02490234 C-54.07822995 587.5571859 -54.07514424 586.08946824 -54.07249451 584.62174988 C-54.0659289 581.44940153 -54.0563562 578.27708107 -54.04459953 575.10474777 C-54.02619005 570.03351212 -54.01666927 564.96228311 -54.00868225 559.89102173 C-53.98613118 546.35555538 -53.9552134 532.8201133 -53.91248614 519.28469503 C-53.06026133 445.43527221 -53.06026133 445.43527221 -58.5625 371.875 C-59.00772154 368.18565148 -59.44359351 364.49521681 -59.87890625 360.8046875 C-59.98100906 359.9485083 -60.08311188 359.0923291 -60.18830872 358.21020508 C-61.55382657 346.57755823 -62.18007666 334.96402409 -62.1875 323.25 C-62.19974609 322.21746094 -62.21199219 321.18492187 -62.22460938 320.12109375 C-62.24427367 309.69901798 -61.74007638 299.49287328 -54.5703125 291.3828125 C-46.32010276 283.44840026 -34.5947234 282.19927881 -23.75 280.5625 C-1.94030342 276.99403799 17.53274883 270.27246638 34 255 C34.83789062 254.24203125 35.67578125 253.4840625 36.5390625 252.703125 C56.44917622 233.840912 67.31784778 207.51688808 68.18359375 180.2109375 C68.853131 145.24770211 57.97019495 112.96765475 33.78149414 87.37402344 C3.98128042 56.96463135 -38.39312947 45.53023421 -79.91967773 44.76782227 C-102.06310573 44.61849476 -122.58543739 48.64635935 -144 54 C-144 35.85 -144 17.7 -144 -1 C-97.75722178 -15.45086819 -46.3254687 -14.20555889 0 0 Z " fill="#000000" transform="translate(619,255)"/>
<path d="M0 0 C0.33 0.66 0.66 1.32 1 2 C2.32644531 1.76410156 2.32644531 1.76410156 3.6796875 1.5234375 C9.46795133 0.70486571 15.28892535 0.69640914 21.125 0.625 C22.29160156 0.58761719 23.45820313 0.55023438 24.66015625 0.51171875 C33.17354496 0.42395186 33.17354496 0.42395186 36.875 3.00390625 C37.57625 3.99261719 38.2775 4.98132813 39 6 C40.09450572 7.31450172 41.19674977 8.62258075 42.3046875 9.92578125 C43.4974779 11.38583042 44.68752757 12.8481224 45.875 14.3125 C52.95275911 24.32582087 52.95275911 24.32582087 62 32 C62 32.66 62 33.32 62 34 C62.58458984 34.25450928 63.16917969 34.50901855 63.77148438 34.77124023 C66.23159038 36.12769439 67.74033784 37.61299298 69.65625 39.66015625 C95.03474635 65.65435087 130.68489571 78.42133285 164.890625 87.921875 C178.99331069 91.84231641 192.61975158 96.03797018 206 102 C206.8564209 102.37882324 207.7128418 102.75764648 208.59521484 103.14794922 C219.34169856 107.95149559 229.56639693 113.25869726 239.49267578 119.59692383 C242.96823083 122.09794245 242.96823083 122.09794245 247 123 C248.09244951 124.12768982 249.18346582 125.25678543 250.26953125 126.390625 C252.42169234 128.3921834 254.73224468 130.04332716 257.125 131.75 C274.67529536 144.32614748 291.08330616 159.47392606 305 176 C305.87479135 177.03403072 306.74981027 178.06786894 307.625 179.1015625 C309.02877178 180.7598276 310.43166994 182.41875145 311.83007812 184.08154297 C313.21470146 185.72565572 314.60561493 187.36415792 316 189 C316.51828369 189.60875977 317.03656738 190.21751953 317.57055664 190.84472656 C336.9054798 213.2670682 359.04693468 232.8056452 386.91210938 243.66918945 C390.78874923 245.22694657 392.76106381 246.50115511 395 250 C396.51845242 253.62112875 397.63409373 257.38087021 398.8125 261.125 C399.15998291 262.21997803 399.50746582 263.31495605 399.86547852 264.44311523 C404.34853504 278.91663083 408.42241891 293.89511436 410 309 C409.04480469 309.61746094 408.08960938 310.23492187 407.10546875 310.87109375 C393.526457 319.21999401 393.526457 319.21999401 382.328125 330.2578125 C381.88984375 330.83273437 381.4515625 331.40765625 381 332 C380.34 332 379.68 332 379 332 C378.74476563 332.55945313 378.48953125 333.11890625 378.2265625 333.6953125 C376.83413932 336.31164905 375.17284438 338.51846295 373.375 340.875 C358.11401073 361.81065314 351.43341273 385.94655191 344.734375 410.6640625 C333.72199878 450.67220301 308.59296492 481.62144916 274.5 504.5 C245.98183488 523.64607659 231.50957632 544.14081834 224.6875 577.90234375 C221.3197087 596.96854593 219.8131139 616.16173881 220 635.5 C220.02673936 638.32291272 220.04660154 641.14575784 220.0625 643.96875 C220.07410156 645.20044922 220.08570313 646.43214844 220.09765625 647.70117188 C220 651 220 651 219.50099182 653.38957214 C218.99603086 656.0206813 218.87956019 658.38979265 218.88647461 661.06567383 C218.88655014 662.04631302 218.88662567 663.02695221 218.88670349 664.03730774 C218.89186478 665.0833165 218.89702606 666.12932526 218.90234375 667.20703125 C218.9037587 668.28756271 218.90517365 669.36809418 218.90663147 670.48136902 C218.9122192 673.92510776 218.9247695 677.36878098 218.9375 680.8125 C218.94251658 683.15038968 218.94707921 685.48828039 218.95117188 687.82617188 C218.96218462 693.55080353 218.97891059 699.27539708 219 705 C214.48187768 707.28373583 209.9611797 709.56225804 205.43798828 711.8359375 C203.8988525 712.61054162 202.360437 713.38657862 200.82275391 714.1640625 C198.61547549 715.27979833 196.40567846 716.3903961 194.1953125 717.5 C193.16085495 718.0249707 193.16085495 718.0249707 192.10549927 718.56054688 C187.22774341 721 187.22774341 721 185 721 C184.67 721.66 184.34 722.32 184 723 C181.9375 723.625 181.9375 723.625 180 724 C179.9528459 705.66429212 179.91780212 687.32860041 179.89637566 668.99284458 C179.8861534 660.4752707 179.87227125 651.95773492 179.84912109 643.44018555 C179.82890468 635.99835633 179.81621828 628.55655475 179.81182301 621.11469883 C179.80926226 617.19059785 179.80344451 613.2665758 179.78853989 609.34250069 C179.72985718 593.2350436 179.93351554 577.19799141 180.92236328 561.11694336 C180.98438167 560.10257098 180.98438167 560.10257098 181.04765296 559.06770623 C184.30203377 507.11653949 184.30203377 507.11653949 199 494 C205.56118834 489.20846971 212.66323614 485.45353093 220 482 C220 481.34 220 480.68 220 480 C220.68578125 479.91234375 221.3715625 479.8246875 222.078125 479.734375 C225.69272682 478.82589219 228.59919889 477.17209741 231.75 475.25 C232.39179199 474.86166992 233.03358398 474.47333984 233.69482422 474.07324219 C242.86129793 468.38522606 252.36058594 461.90659006 259.8671875 454.109375 C262 452 262 452 264 452 C264.2475 451.38125 264.495 450.7625 264.75 450.125 C266.23740369 447.59641373 267.43678009 447.28160996 270 446 C270.42152344 445.13375 270.42152344 445.13375 270.8515625 444.25 C272.30523738 441.4019839 274.23729993 439.37983438 276.375 437 C306.82644325 401.54654387 316.86796023 351.12089779 313.53588867 305.61743164 C311.49748104 281.733532 306.78889797 239.50025267 288.86328125 221.90234375 C286.57655917 219.56768201 286.57498832 218.17170975 286 215 C284.81647022 212.66741219 283.60829794 210.4755666 282.25 208.25 C281.85659424 207.60240723 281.46318848 206.95481445 281.05786133 206.28759766 C267.13164645 183.9062763 248.55681342 164.1487557 227 149 C226.44119141 148.60603027 225.88238281 148.21206055 225.30664062 147.80615234 C204.00968031 132.89709827 180.63051432 121.26705871 156 113 C154.8236499 112.60385498 154.8236499 112.60385498 153.62353516 112.19970703 C132.32801836 105.15060761 110.26346084 101.39031739 88 99 C86.77410156 98.86722656 85.54820312 98.73445313 84.28515625 98.59765625 C80.52273043 98.27716957 76.77334198 98.09869447 73 98 C71.96552734 97.97276855 70.93105469 97.94553711 69.86523438 97.91748047 C47.83455252 97.43392464 26.6906647 99.28820823 5 103 C3.00013401 103.33413639 1.0001692 103.66768349 -1 104 C-1 103.34 -1 102.68 -1 102 C-1.66 102 -2.32 102 -3 102 C-3 101.01 -3 100.02 -3 99 C-2.34 99 -1.68 99 -1 99 C-1.00333092 97.18382675 -1.00333092 97.18382675 -1.00672913 95.33096313 C-1.02696797 83.94129077 -1.04197574 72.55162204 -1.05181217 61.16193581 C-1.0570391 55.30586627 -1.06413333 49.44981121 -1.07543945 43.59375 C-1.08627504 37.9463016 -1.09227827 32.29886714 -1.09487724 26.65140915 C-1.09673027 24.49275874 -1.10034857 22.33410913 -1.10573006 20.17546463 C-1.11294936 17.16074195 -1.11399056 14.14607753 -1.11352539 11.13134766 C-1.1189183 9.78160103 -1.1189183 9.78160103 -1.12442017 8.40458679 C-1.11405216 2.22810432 -1.11405216 2.22810432 0 0 Z " fill="#000000" transform="translate(476,112)"/>
<path d="M0 0 C1.04051514 0.00132935 1.04051514 0.00132935 2.10205078 0.00268555 C12.84232672 0.0187601 23.53924052 0.29194093 34.25 1.125 C34.25 1.785 34.25 2.445 34.25 3.125 C34.82105469 3.15078125 35.39210938 3.1765625 35.98046875 3.203125 C59.05608022 4.81731722 82.36934294 18.72645112 97.63867188 35.66552734 C113.18052492 53.73941668 120.48546918 75.90041626 118.90820312 99.63427734 C117.54517233 115.95200428 111.56947756 130.42258965 101.25 143.125 C100.65703125 143.90488281 100.0640625 144.68476563 99.453125 145.48828125 C87.44868964 160.33992243 69.50673095 166.10733955 51.25 168.6875 C31.9044296 171.48076348 13.0601128 176.22530887 0.25 192.125 C-4.74366748 199.65668414 -8.57436006 208.13511527 -9.75 217.125 C-9.915 218.383125 -10.08 219.64125 -10.25 220.9375 C-10.98899608 227.66574532 -11.10922716 234.42617865 -11.3125 241.1875 C-11.35579628 242.54363016 -11.39941366 243.89975011 -11.44335938 245.25585938 C-11.5487211 248.54548671 -11.65084952 251.83518059 -11.75 255.125 C-12.89505005 254.66444214 -12.89505005 254.66444214 -14.06323242 254.19458008 C-21.62230157 251.18537681 -29.28720471 248.52743481 -37.09326172 246.24414062 C-46.32367409 243.51526142 -52.51368397 240.8552357 -57.70703125 232.3828125 C-60.89808435 225.47483988 -61.05367765 219.09627105 -61.06884766 211.59008789 C-61.07889328 210.44789795 -61.0889389 209.30570801 -61.09928894 208.12890625 C-61.13008184 204.36849451 -61.14714554 200.60815386 -61.1640625 196.84765625 C-61.18277724 194.23448578 -61.20235088 191.62132133 -61.2227478 189.00816345 C-61.26942938 182.84251101 -61.30622465 176.67684128 -61.33942068 170.51110309 C-61.3777174 163.48804347 -61.42710763 156.46507535 -61.47740483 149.44209301 C-61.58056655 135.00313254 -61.66987792 120.56410648 -61.75 106.125 C-62.08 106.125 -62.41 106.125 -62.75 106.125 C-62.75 102.825 -62.75 99.525 -62.75 96.125 C-62.42 96.125 -62.09 96.125 -61.75 96.125 C-61.42 67.745 -61.09 39.365 -60.75 10.125 C-40.75 3.45833333 -40.75 3.45833333 -34.59765625 2.44921875 C-32.5274891 2.13277592 -32.5274891 2.13277592 -29.75 1.125 C-19.86447944 0.02412031 -9.93450489 -0.03682966 0 0 Z " fill="#000000" transform="translate(535.75,334.875)"/>
<path d="M0 0 C1.66963437 2.9421552 2.27824278 5.16438947 2.4140625 8.53515625 C2.45297607 9.41582764 2.49188965 10.29649902 2.53198242 11.20385742 C2.57802612 12.6188855 2.57802612 12.6188855 2.625 14.0625 C2.67974487 15.55003784 2.67974487 15.55003784 2.7355957 17.06762695 C2.83737112 20.04485575 2.92168732 23.02207095 3 26 C3.02336426 26.76731445 3.04672852 27.53462891 3.07080078 28.32519531 C3.89843558 58.52343315 1.024101 88.74874608 -5.9375 118.125 C-6.16598633 119.1152417 -6.39447266 120.1054834 -6.62988281 121.12573242 C-8.96258551 130.38996331 -13.52695346 135.93496978 -20.51953125 142.40625 C-24.37521849 146.0903727 -27.6665533 150.06018618 -30.875 154.3125 C-35.29464499 160.16387273 -39.95593011 165.66893993 -45 171 C-46.15242187 172.23169922 -46.15242187 172.23169922 -47.328125 173.48828125 C-56.29196362 182.78464937 -66.44148917 190.05267684 -77.18652344 197.10498047 C-104.7761029 215.32545081 -123.12400033 237.05319596 -130 270 C-131.49342709 277.36503183 -132.12231087 284.51821274 -132.17578125 292.01171875 C-132.20049698 293.61003662 -132.22589515 295.20834407 -132.25195312 296.80664062 C-132.29154771 299.25732426 -132.31229564 301.70080726 -132.2746582 304.15161133 C-132.10954747 317.41726841 -132.10954747 317.41726841 -135.21646118 321.66192627 C-138.70091129 325.12600783 -142.79090596 327.51437208 -147 330 C-148.56144795 331.15245739 -150.10758901 332.32631366 -151.62890625 333.53125 C-152.93954822 334.52156954 -154.25072354 335.5111837 -155.5625 336.5 C-156.23345703 337.01046875 -156.90441406 337.5209375 -157.59570312 338.046875 C-158.24603516 338.53671875 -158.89636719 339.0265625 -159.56640625 339.53125 C-160.13302979 339.95986328 -160.69965332 340.38847656 -161.28344727 340.83007812 C-163.11785309 342.08032314 -164.99570586 343.05061194 -167 344 C-167.66 343.34 -168.32 342.68 -169 342 C-168.34 342 -167.68 342 -167 342 C-167.00666183 341.31271317 -167.01332367 340.62542633 -167.02018738 339.91731262 C-167.08148325 333.28941089 -167.12655449 326.66159336 -167.15543652 320.03346729 C-167.17078644 316.62963975 -167.19320372 313.22623609 -167.22631836 309.82250977 C-167.59182368 271.21511413 -166.84544097 227.43769718 -138.7734375 197.6796875 C-131.28287759 190.44232962 -122.72927861 184.76759652 -114.0625 179.0625 C-73.92726107 152.63022912 -51.51487505 115.30360367 -40.4375 68.75 C-33.84433431 41.12543544 -23.14424677 17.32461025 0 0 Z " fill="#000000" transform="translate(890,455)"/>
<path d="M0 0 C0.87043945 0.31227539 1.74087891 0.62455078 2.63769531 0.94628906 C5.75179643 1.92221561 8.56622575 2.46580961 11.796875 2.859375 C12.90691895 3.00213867 14.01696289 3.14490234 15.16064453 3.29199219 C16.34513184 3.44313477 17.52961914 3.59427734 18.75 3.75 C48.63001213 7.82719464 77.34268676 15.84688336 104.98046875 27.8984375 C108.94258206 29.61014159 112.81665247 30.9469305 117 32 C117 32.66 117 33.32 117 34 C118.15242187 34.32677734 118.15242187 34.32677734 119.328125 34.66015625 C124.36656503 36.49865086 129.00660843 38.9462114 133.75 41.4375 C134.76553955 41.96956055 135.7810791 42.50162109 136.82739258 43.04980469 C146.13582249 47.98024393 155.13008227 53.32389741 164 59 C165.02609375 59.65097656 166.0521875 60.30195313 167.109375 60.97265625 C180.80835063 69.88455891 193.91798208 79.7424927 206.22167969 90.49291992 C207.60977062 91.66929078 209.02170286 92.81754612 210.44238281 93.9543457 C217.30323631 99.44581944 223.5817228 105.30817488 229.75 111.5625 C230.64332031 112.45646484 231.53664063 113.35042969 232.45703125 114.27148438 C237.5061022 119.35401751 242.37883264 124.52546372 247 130 C247.51578613 130.60900146 248.03157227 131.21800293 248.56298828 131.84545898 C256.94977889 141.83978416 264.6748971 152.20693536 272 163 C272.39638672 163.5789502 272.79277344 164.15790039 273.20117188 164.75439453 C278.45832523 172.47840105 283.08838401 180.52594827 287.625 188.6875 C288.17091797 189.6571167 288.71683594 190.6267334 289.27929688 191.62573242 C290.02663086 192.99242065 290.02663086 192.99242065 290.7890625 194.38671875 C291.23975098 195.20358154 291.69043945 196.02044434 292.15478516 196.86206055 C293 199 293 199 292 202 C290.62437146 200.71034824 289.29233607 199.37310707 288 198 C288 197.34 288 196.68 288 196 C287.4534375 195.77054688 286.906875 195.54109375 286.34375 195.3046875 C274.68470435 188.81448542 263.49587566 175.2757952 254.90625 165.19140625 C251.82056552 161.64413373 248.59956328 158.22209964 245.40014648 154.77758789 C242.73025561 151.89631151 240.10627885 148.99417361 237.5625 146 C230.0177564 137.31711989 221.7441871 129.30870666 212.73046875 122.16796875 C209.84914348 119.88022122 207.05251508 117.5084474 204.25 115.125 C172.33268597 88.60907757 136.40706744 72.88047352 97.35476685 60.09539795 C89.86131171 57.63737573 82.41983005 55.04086131 74.98828125 52.40234375 C70.67910561 50.87390774 66.34197821 49.43215096 62 48 C62 47.34 62 46.68 62 46 C61.195625 45.7525 60.39125 45.505 59.5625 45.25 C51.59951254 42.45596931 44.89974091 38.83626699 38 34 C36.98679687 33.31679687 35.97359375 32.63359375 34.9296875 31.9296875 C22.36607839 23.40544208 10.73992417 13.73992417 0 3 C0 2.01 0 1.02 0 0 Z " fill="#010101" transform="translate(554,112)"/>
<path d="M0 0 C0.99 0.33 1.98 0.66 3 1 C2.01 1.33 1.02 1.66 0 2 C-0.713655 3.98371898 -1.36909893 5.98843139 -2 8 C-3.29656243 10.73361018 -4.76828454 13.36299896 -6.25 16 C-6.68401123 16.77400146 -7.11802246 17.54800293 -7.56518555 18.34545898 C-16.5124791 34.09101011 -26.3412152 49.11609569 -37.63232422 63.27832031 C-38.80399963 64.75326765 -39.95317046 66.24604406 -41.09765625 67.7421875 C-45.70688096 73.71167173 -50.80234886 79.18373892 -55.98999023 84.64892578 C-56.56434814 85.25462402 -57.13870605 85.86032227 -57.73046875 86.484375 C-58.28782715 87.07154297 -58.84518555 87.65871094 -59.41943359 88.26367188 C-60.92533294 89.91797465 -62.30010878 91.62783126 -63.67578125 93.390625 C-66.06495004 96.0729187 -66.67668252 96.39631721 -70 97 C-66.88126886 75.01210562 -62.97730942 51.81822044 -47 35 C-46.34 35 -45.68 35 -45 35 C-44.74057617 34.40018311 -44.48115234 33.80036621 -44.21386719 33.18237305 C-42.90040132 30.82093472 -41.71470117 29.70862771 -39.578125 28.08203125 C-38.54498169 27.29070801 -38.54498169 27.29070801 -37.4909668 26.48339844 C-36.75144775 25.93200195 -36.01192871 25.38060547 -35.25 24.8125 C-34.10688354 23.94866699 -34.10688354 23.94866699 -32.94067383 23.06738281 C-27.2293858 18.79924092 -21.35794013 14.90900322 -15.3046875 11.1484375 C-10.7922804 8.21483951 -6.61837998 4.92465183 -2.42578125 1.5546875 C-1.62527344 1.04164063 -0.82476563 0.52859375 0 0 Z " fill="#010102" transform="translate(853,651)"/>
<path d="M0 0 C0.33 0 0.66 0 1 0 C1 4.62 1 9.24 1 14 C0.67 14 0.34 14 0 14 C0 9.38 0 4.76 0 0 Z " fill="#0A0A0A" transform="translate(352,439)"/>
<path d="M0 0 C0.33 0 0.66 0 1 0 C1 4.29 1 8.58 1 13 C0.67 13 0.34 13 0 13 C0 8.71 0 4.42 0 0 Z " fill="#090A09" transform="translate(473,403)"/>
<path d="M0 0 C0.33 0 0.66 0 1 0 C1 4.29 1 8.58 1 13 C0.67 13 0.34 13 0 13 C0 8.71 0 4.42 0 0 Z " fill="#09090A" transform="translate(352,376)"/>
<path d="M0 0 C0.33 0 0.66 0 1 0 C1 3.3 1 6.6 1 10 C0.67 10 0.34 10 0 10 C0 6.7 0 3.4 0 0 Z " fill="#090909" transform="translate(473,471)"/>
<path d="M0 0 C0.33 0 0.66 0 1 0 C1 2.97 1 5.94 1 9 C0.67 9 0.34 9 0 9 C0 6.03 0 3.06 0 0 Z " fill="#080908" transform="translate(473,448)"/>
<path d="M0 0 C0.33 0 0.66 0 1 0 C1 2.31 1 4.62 1 7 C0.67 7 0.34 7 0 7 C0 4.69 0 2.38 0 0 Z " fill="#0B0A0A" transform="translate(352,534)"/>
<path d="M0 0 C0.33 0 0.66 0 1 0 C1 2.31 1 4.62 1 7 C0.67 7 0.34 7 0 7 C0 4.69 0 2.38 0 0 Z " fill="#090A0A" transform="translate(352,486)"/>
<path d="M0 0 C0.33 0 0.66 0 1 0 C1 2.31 1 4.62 1 7 C0.67 7 0.34 7 0 7 C0 4.69 0 2.38 0 0 Z " fill="#090A09" transform="translate(473,482)"/>
<path d="M0 0 C0.33 0 0.66 0 1 0 C1 2.31 1 4.62 1 7 C0.67 7 0.34 7 0 7 C0 4.69 0 2.38 0 0 Z " fill="#0A0A0A" transform="translate(352,454)"/>
<path d="M0 0 C0.33 0 0.66 0 1 0 C1 2.31 1 4.62 1 7 C0.67 7 0.34 7 0 7 C0 4.69 0 2.38 0 0 Z " fill="#09090A" transform="translate(352,390)"/>
<path d="M0 0 C0.33 0 0.66 0 1 0 C1 2.31 1 4.62 1 7 C0.67 7 0.34 7 0 7 C0 4.69 0 2.38 0 0 Z " fill="#0A090A" transform="translate(352,368)"/>
<path d="M0 0 C0.33 0 0.66 0 1 0 C1 2.31 1 4.62 1 7 C0.67 7 0.34 7 0 7 C0 4.69 0 2.38 0 0 Z " fill="#08090A" transform="translate(352,341)"/>
<path d="M0 0 C0.33 0 0.66 0 1 0 C1 1.98 1 3.96 1 6 C0.67 6 0.34 6 0 6 C0 4.02 0 2.04 0 0 Z " fill="#0C0C0C" transform="translate(352,598)"/>
<path d="M0 0 C0.33 0 0.66 0 1 0 C1 1.98 1 3.96 1 6 C0.67 6 0.34 6 0 6 C0 4.02 0 2.04 0 0 Z " fill="#0A0B0B" transform="translate(352,582)"/>
<path d="M0 0 C0.33 0 0.66 0 1 0 C1 1.98 1 3.96 1 6 C0.67 6 0.34 6 0 6 C0 4.02 0 2.04 0 0 Z " fill="#0A0A0B" transform="translate(352,558)"/>
<path d="M0 0 C0.33 0 0.66 0 1 0 C1 1.98 1 3.96 1 6 C0.67 6 0.34 6 0 6 C0 4.02 0 2.04 0 0 Z " fill="#0A0B0B" transform="translate(352,542)"/>
<path d="M0 0 C0.33 0 0.66 0 1 0 C1 1.98 1 3.96 1 6 C0.67 6 0.34 6 0 6 C0 4.02 0 2.04 0 0 Z " fill="#0A0A0B" transform="translate(473,515)"/>
<path d="M0 0 C0.33 0 0.66 0 1 0 C1 1.98 1 3.96 1 6 C0.67 6 0.34 6 0 6 C0 4.02 0 2.04 0 0 Z " fill="#0A0A0B" transform="translate(352,502)"/>
<path d="M0 0 C0.33 0 0.66 0 1 0 C1 1.98 1 3.96 1 6 C0.67 6 0.34 6 0 6 C0 4.02 0 2.04 0 0 Z " fill="#090A0B" transform="translate(352,494)"/>
<path d="M0 0 C0.33 0 0.66 0 1 0 C1 1.98 1 3.96 1 6 C0.67 6 0.34 6 0 6 C0 4.02 0 2.04 0 0 Z " fill="#0A0A0A" transform="translate(352,478)"/>
<path d="M0 0 C0.33 0 0.66 0 1 0 C1 1.98 1 3.96 1 6 C0.67 6 0.34 6 0 6 C0 4.02 0 2.04 0 0 Z " fill="#0B0A0B" transform="translate(352,463)"/>
<path d="M0 0 C0.33 0 0.66 0 1 0 C1 1.98 1 3.96 1 6 C0.67 6 0.34 6 0 6 C0 4.02 0 2.04 0 0 Z " fill="#0A0A0C" transform="translate(352,431)"/>
<path d="M0 0 C0.33 0 0.66 0 1 0 C1 1.98 1 3.96 1 6 C0.67 6 0.34 6 0 6 C0 4.02 0 2.04 0 0 Z " fill="#090A0B" transform="translate(352,359)"/>
<path d="M0 0 C0.33 0 0.66 0 1 0 C1 1.98 1 3.96 1 6 C0.67 6 0.34 6 0 6 C0 4.02 0 2.04 0 0 Z " fill="#080909" transform="translate(352,278)"/>
<path d="M0 0 C0.33 0 0.66 0 1 0 C1 1.65 1 3.3 1 5 C0.67 5 0.34 5 0 5 C0 3.35 0 1.7 0 0 Z " fill="#0B0B0C" transform="translate(352,552)"/>
<path d="M0 0 C0.33 0 0.66 0 1 0 C1 1.65 1 3.3 1 5 C0.67 5 0.34 5 0 5 C0 3.35 0 1.7 0 0 Z " fill="#0A0A0A" transform="translate(352,528)"/>
<path d="M0 0 C0.33 0 0.66 0 1 0 C1 1.65 1 3.3 1 5 C0.67 5 0.34 5 0 5 C0 3.35 0 1.7 0 0 Z " fill="#0A0A0B" transform="translate(352,520)"/>
<path d="M0 0 C0.33 0 0.66 0 1 0 C1 1.65 1 3.3 1 5 C0.67 5 0.34 5 0 5 C0 3.35 0 1.7 0 0 Z " fill="#0A0A0A" transform="translate(352,415)"/>
<path d="M0 0 C0.33 0 0.66 0 1 0 C1 1.65 1 3.3 1 5 C0.67 5 0.34 5 0 5 C0 3.35 0 1.7 0 0 Z " fill="#090A0B" transform="translate(352,408)"/>
<path d="M0 0 C0.33 0 0.66 0 1 0 C1 1.65 1 3.3 1 5 C0.67 5 0.34 5 0 5 C0 3.35 0 1.7 0 0 Z " fill="#080909" transform="translate(352,398)"/>
<path d="M0 0 C0.33 0 0.66 0 1 0 C1 1.65 1 3.3 1 5 C0.67 5 0.34 5 0 5 C0 3.35 0 1.7 0 0 Z " fill="#08090A" transform="translate(352,287)"/>
<path d="M0 0 C0.33 0 0.66 0 1 0 C1 1.65 1 3.3 1 5 C0.67 5 0.34 5 0 5 C0 3.35 0 1.7 0 0 Z " fill="#0D0E0D" transform="translate(352,182)"/>
<path d="M0 0 C0.33 0 0.66 0 1 0 C1 1.65 1 3.3 1 5 C0.67 5 0.34 5 0 5 C0 3.35 0 1.7 0 0 Z " fill="#0E0F0F" transform="translate(352,176)"/>
<path d="M0 0 C1 4 1 4 1 4 Z " fill="#0C0B0C" transform="translate(352,617)"/>
<path d="M0 0 C1 4 1 4 1 4 Z " fill="#0B0C0D" transform="translate(352,608)"/>
<path d="M0 0 C1 4 1 4 1 4 Z " fill="#0B0A0A" transform="translate(352,576)"/>
<path d="M0 0 C1 4 1 4 1 4 Z " fill="#0B090B" transform="translate(352,568)"/>
<path d="M0 0 C1 4 1 4 1 4 Z " fill="#0C0B0B" transform="translate(473,530)"/>
<path d="M0 0 C1 4 1 4 1 4 Z " fill="#0B0B0B" transform="translate(473,522)"/>
<path d="M0 0 C1 4 1 4 1 4 Z " fill="#0A0A0A" transform="translate(473,498)"/>
<path d="M0 0 C1 4 1 4 1 4 Z " fill="#090A0B" transform="translate(352,471)"/>
<path d="M0 0 C1 4 1 4 1 4 Z " fill="#090A0B" transform="translate(352,422)"/>
<path d="M0 0 C1 4 1 4 1 4 Z " fill="#09090A" transform="translate(473,394)"/>
<path d="M0 0 C1 4 1 4 1 4 Z " fill="#0A0A0A" transform="translate(473,378)"/>
<path d="M0 0 C1 4 1 4 1 4 Z " fill="#090A09" transform="translate(473,365)"/>
<path d="M0 0 C1 4 1 4 1 4 Z " fill="#0A090A" transform="translate(473,359)"/>
<path d="M0 0 C1 4 1 4 1 4 Z " fill="#09080A" transform="translate(352,336)"/>
<path d="M0 0 C1 4 1 4 1 4 Z " fill="#080909" transform="translate(352,321)"/>
<path d="M0 0 C1 4 1 4 1 4 Z " fill="#080909" transform="translate(352,303)"/>
<path d="M0 0 C1 4 1 4 1 4 Z " fill="#080909" transform="translate(352,295)"/>
<path d="M0 0 C1 4 1 4 1 4 Z " fill="#0C0B0A" transform="translate(473,274)"/>
<path d="M0 0 C1 4 1 4 1 4 Z " fill="#090908" transform="translate(352,272)"/>
<path d="M0 0 C1 4 1 4 1 4 Z " fill="#09090A" transform="translate(352,248)"/>
<path d="M0 0 C1 4 1 4 1 4 Z " fill="#0A0B0B" transform="translate(352,193)"/>
<path d="M0 0 C1 4 1 4 1 4 Z " fill="#101010" transform="translate(473,154)"/>
<path d="M0 0 C1 4 1 4 1 4 Z " fill="#20201E" transform="translate(473,114)"/>
<path d="" fill="#0D0D0C" transform="translate(0,0)"/>
<path d="" fill="#0A090A" transform="translate(0,0)"/>
<path d="" fill="#1A1B18" transform="translate(0,0)"/>
<path d="" fill="#1B1C1C" transform="translate(0,0)"/>
<path d="" fill="#090909" transform="translate(0,0)"/>
<path d="" fill="#0A0909" transform="translate(0,0)"/>
<path d="" fill="#090A09" transform="translate(0,0)"/>
<path d="" fill="#0A090A" transform="translate(0,0)"/>
<path d="" fill="#09090B" transform="translate(0,0)"/>
<path d="" fill="#080909" transform="translate(0,0)"/>
<path d="" fill="#080809" transform="translate(0,0)"/>
<path d="" fill="#090A09" transform="translate(0,0)"/>
<path d="" fill="#0C0B0B" transform="translate(0,0)"/>
<path d="" fill="#0D0E0B" transform="translate(0,0)"/>
<path d="" fill="#0F1011" transform="translate(0,0)"/>
<path d="M0 0 C2 1 2 1 2 1 Z " fill="#151415" transform="translate(467,862)"/>
<path d="M0 0 C2 1 2 1 2 1 Z " fill="#161616" transform="translate(457,861)"/>
<path d="" fill="#151616" transform="translate(0,0)"/>
<path d="" fill="#09080A" transform="translate(0,0)"/>
<path d="" fill="#0A0A0A" transform="translate(0,0)"/>
<path d="" fill="#181716" transform="translate(0,0)"/>
<path d="" fill="#0D0E0E" transform="translate(0,0)"/>
<path d="" fill="#0C0B0B" transform="translate(0,0)"/>
<path d="" fill="#191919" transform="translate(0,0)"/>
<path d="" fill="#0D0C0D" transform="translate(0,0)"/>
<path d="M0 0 C2 1 2 1 2 1 Z " fill="#0C0E0D" transform="translate(486,611)"/>
<path d="M0 0 C2 1 2 1 2 1 Z " fill="#171919" transform="translate(147,606)"/>
<path d="" fill="#0A0C0C" transform="translate(0,0)"/>
<path d="M0 0 C2 1 2 1 2 1 Z " fill="#0C0B0B" transform="translate(721,576)"/>
<path d="" fill="#1F2020" transform="translate(0,0)"/>
<path d="" fill="#0C0E0B" transform="translate(0,0)"/>
<path d="M0 0 C2 1 2 1 2 1 Z " fill="#0D0D0D" transform="translate(584,536)"/>
<path d="M0 0 C2 1 2 1 2 1 Z " fill="#0D0C0C" transform="translate(620,528)"/>
<path d="" fill="#1D1D1C" transform="translate(0,0)"/>
<path d="" fill="#0B0B0B" transform="translate(0,0)"/>
<path d="" fill="#0C0A0B" transform="translate(0,0)"/>
<path d="" fill="#0C0B0B" transform="translate(0,0)"/>
<path d="" fill="#0B090A" transform="translate(0,0)"/>
<path d="" fill="#090A09" transform="translate(0,0)"/>
<path d="M0 0 C2 1 2 1 2 1 Z " fill="#0B0B0B" transform="translate(672,483)"/>
<path d="" fill="#0D0D0D" transform="translate(0,0)"/>
<path d="" fill="#0A090A" transform="translate(0,0)"/>
<path d="" fill="#080808" transform="translate(0,0)"/>
<path d="" fill="#0A0B09" transform="translate(0,0)"/>
<path d="" fill="#0D0D0C" transform="translate(0,0)"/>
<path d="" fill="#0D0C0D" transform="translate(0,0)"/>
<path d="" fill="#0A0A09" transform="translate(0,0)"/>
<path d="" fill="#100F10" transform="translate(0,0)"/>
<path d="" fill="#0B0C0B" transform="translate(0,0)"/>
<path d="" fill="#0B0B0A" transform="translate(0,0)"/>
<path d="" fill="#0C0D0C" transform="translate(0,0)"/>
<path d="" fill="#070709" transform="translate(0,0)"/>
<path d="M0 0 C2 1 2 1 2 1 Z " fill="#0D0D0D" transform="translate(750,311)"/>
<path d="" fill="#0C0C0B" transform="translate(0,0)"/>
<path d="" fill="#0A0A0A" transform="translate(0,0)"/>
<path d="M0 0 C2 1 2 1 2 1 Z " fill="#0C0D0C" transform="translate(488,248)"/>
<path d="" fill="#0A0A0A" transform="translate(0,0)"/>
<path d="M0 0 C2 1 2 1 2 1 Z " fill="#0D0D0C" transform="translate(485,215)"/>
<path d="M0 0 C2 1 2 1 2 1 Z " fill="#0B0C0B" transform="translate(670,208)"/>
<path d="" fill="#0B0D0B" transform="translate(0,0)"/>
<path d="" fill="#0B0B0B" transform="translate(0,0)"/>
<path d="" fill="#0D0C0D" transform="translate(0,0)"/>
<path d="" fill="#0D0D0D" transform="translate(0,0)"/>
<path d="" fill="#0E0C0D" transform="translate(0,0)"/>
<path d="" fill="#111312" transform="translate(0,0)"/>
<path d="" fill="#151516" transform="translate(0,0)"/>
<path d="" fill="#1E1E1F" transform="translate(0,0)"/>
<path d="" fill="#2F2F2F" transform="translate(0,0)"/>
<path d="" fill="#151513" transform="translate(0,0)"/>
<path d="" fill="#1D1C1C" transform="translate(0,0)"/>
<path d="" fill="#131212" transform="translate(0,0)"/>
<path d="" fill="#141313" transform="translate(0,0)"/>
<path d="" fill="#1E1D1D" transform="translate(0,0)"/>
<path d="" fill="#1E1D1D" transform="translate(0,0)"/>
<path d="" fill="#191818" transform="translate(0,0)"/>
<path d="" fill="#111312" transform="translate(0,0)"/>
<path d="" fill="#151416" transform="translate(0,0)"/>
<path d="" fill="#161615" transform="translate(0,0)"/>
<path d="" fill="#0A0C0A" transform="translate(0,0)"/>
<path d="" fill="#121411" transform="translate(0,0)"/>
<path d="" fill="#181717" transform="translate(0,0)"/>
<path d="" fill="#191718" transform="translate(0,0)"/>
<path d="" fill="#121111" transform="translate(0,0)"/>
<path d="" fill="#1E1E1F" transform="translate(0,0)"/>
<path d="" fill="#0A0D0D" transform="translate(0,0)"/>
<path d="" fill="#12110E" transform="translate(0,0)"/>
<path d="" fill="#181619" transform="translate(0,0)"/>
<path d="" fill="#0D0D0F" transform="translate(0,0)"/>
<path d="" fill="#151314" transform="translate(0,0)"/>
<path d="" fill="#171516" transform="translate(0,0)"/>
<path d="" fill="#0F0C10" transform="translate(0,0)"/>
<path d="" fill="#121211" transform="translate(0,0)"/>
<path d="" fill="#111110" transform="translate(0,0)"/>
<path d="" fill="#0D0D0C" transform="translate(0,0)"/>
<path d="" fill="#171715" transform="translate(0,0)"/>
<path d="" fill="#171716" transform="translate(0,0)"/>
<path d="" fill="#141214" transform="translate(0,0)"/>
<path d="" fill="#0C0E0D" transform="translate(0,0)"/>
<path d="" fill="#141315" transform="translate(0,0)"/>
<path d="" fill="#100F0E" transform="translate(0,0)"/>
<path d="" fill="#110E0F" transform="translate(0,0)"/>
<path d="" fill="#201E1E" transform="translate(0,0)"/>
<path d="" fill="#181516" transform="translate(0,0)"/>
<path d="" fill="#0E0E0E" transform="translate(0,0)"/>
<path d="" fill="#0D0C0E" transform="translate(0,0)"/>
<path d="" fill="#151314" transform="translate(0,0)"/>
<path d="" fill="#0D0D0D" transform="translate(0,0)"/>
<path d="" fill="#0E1010" transform="translate(0,0)"/>
<path d="" fill="#0B0B0B" transform="translate(0,0)"/>
<path d="" fill="#0D0D0D" transform="translate(0,0)"/>
<path d="" fill="#171718" transform="translate(0,0)"/>
<path d="" fill="#1C1D22" transform="translate(0,0)"/>
<path d="" fill="#171618" transform="translate(0,0)"/>
<path d="" fill="#0C0C0D" transform="translate(0,0)"/>
<path d="" fill="#151617" transform="translate(0,0)"/>
<path d="" fill="#242524" transform="translate(0,0)"/>
<path d="" fill="#101010" transform="translate(0,0)"/>
<path d="" fill="#232424" transform="translate(0,0)"/>
<path d="" fill="#212121" transform="translate(0,0)"/>
<path d="" fill="#181817" transform="translate(0,0)"/>
<path d="" fill="#171716" transform="translate(0,0)"/>
<path d="" fill="#0E0C0E" transform="translate(0,0)"/>
<path d="" fill="#0C0D0E" transform="translate(0,0)"/>
<path d="" fill="#161514" transform="translate(0,0)"/>
<path d="" fill="#191919" transform="translate(0,0)"/>
<path d="" fill="#0F100E" transform="translate(0,0)"/>
<path d="" fill="#101012" transform="translate(0,0)"/>
<path d="" fill="#0B0B0C" transform="translate(0,0)"/>
<path d="" fill="#0F100F" transform="translate(0,0)"/>
<path d="" fill="#100F0E" transform="translate(0,0)"/>
<path d="" fill="#383839" transform="translate(0,0)"/>
<path d="" fill="#10120E" transform="translate(0,0)"/>
<path d="" fill="#0E0F0E" transform="translate(0,0)"/>
<path d="" fill="#161616" transform="translate(0,0)"/>
<path d="" fill="#0F100E" transform="translate(0,0)"/>
<path d="" fill="#0E0F0E" transform="translate(0,0)"/>
<path d="" fill="#0B0B0E" transform="translate(0,0)"/>
<path d="" fill="#0E100E" transform="translate(0,0)"/>
<path d="" fill="#1A1A19" transform="translate(0,0)"/>
<path d="" fill="#111211" transform="translate(0,0)"/>
<path d="" fill="#0D0D0E" transform="translate(0,0)"/>
<path d="" fill="#0F0E0F" transform="translate(0,0)"/>
<path d="" fill="#1B1A1B" transform="translate(0,0)"/>
<path d="" fill="#0A0C0E" transform="translate(0,0)"/>
<path d="" fill="#0C0C0D" transform="translate(0,0)"/>
<path d="" fill="#0F0F0D" transform="translate(0,0)"/>
<path d="" fill="#0A0C0B" transform="translate(0,0)"/>
<path d="" fill="#1F1F1D" transform="translate(0,0)"/>
<path d="" fill="#0C0C0C" transform="translate(0,0)"/>
<path d="" fill="#1D1B19" transform="translate(0,0)"/>
<path d="" fill="#0E0F0C" transform="translate(0,0)"/>
<path d="" fill="#0E0D0C" transform="translate(0,0)"/>
<path d="" fill="#0F0E0E" transform="translate(0,0)"/>
<path d="" fill="#0A0A0C" transform="translate(0,0)"/>
<path d="" fill="#0D0D10" transform="translate(0,0)"/>
<path d="" fill="#111214" transform="translate(0,0)"/>
<path d="" fill="#0D0D0B" transform="translate(0,0)"/>
<path d="" fill="#0C0D0D" transform="translate(0,0)"/>
<path d="" fill="#111110" transform="translate(0,0)"/>
<path d="" fill="#0D0F0F" transform="translate(0,0)"/>
<path d="" fill="#0D0B0D" transform="translate(0,0)"/>
<path d="" fill="#100F10" transform="translate(0,0)"/>
<path d="" fill="#201E1F" transform="translate(0,0)"/>
<path d="" fill="#0D0D0E" transform="translate(0,0)"/>
<path d="" fill="#0D0F0E" transform="translate(0,0)"/>
<path d="" fill="#0B090B" transform="translate(0,0)"/>
<path d="" fill="#0D0D0D" transform="translate(0,0)"/>
<path d="" fill="#0A0A0B" transform="translate(0,0)"/>
<path d="" fill="#222223" transform="translate(0,0)"/>
<path d="" fill="#101111" transform="translate(0,0)"/>
<path d="" fill="#0B0B0B" transform="translate(0,0)"/>
<path d="" fill="#0C0C0C" transform="translate(0,0)"/>
<path d="" fill="#0E0D0F" transform="translate(0,0)"/>
<path d="" fill="#0B0C0B" transform="translate(0,0)"/>
<path d="" fill="#121414" transform="translate(0,0)"/>
<path d="" fill="#1C1C1B" transform="translate(0,0)"/>
<path d="" fill="#0D0C0E" transform="translate(0,0)"/>
<path d="" fill="#0D0D0A" transform="translate(0,0)"/>
<path d="" fill="#141412" transform="translate(0,0)"/>
<path d="" fill="#1B1C1B" transform="translate(0,0)"/>
<path d="" fill="#0A0C0D" transform="translate(0,0)"/>
<path d="" fill="#0A070A" transform="translate(0,0)"/>
<path d="" fill="#101111" transform="translate(0,0)"/>
<path d="" fill="#0A0A0A" transform="translate(0,0)"/>
<path d="" fill="#1B1918" transform="translate(0,0)"/>
<path d="" fill="#0D0D0C" transform="translate(0,0)"/>
<path d="" fill="#0E0C0D" transform="translate(0,0)"/>
<path d="" fill="#0A0B08" transform="translate(0,0)"/>
<path d="" fill="#1D1C1C" transform="translate(0,0)"/>
<path d="" fill="#0D0F0C" transform="translate(0,0)"/>
<path d="" fill="#1D1E1C" transform="translate(0,0)"/>
<path d="" fill="#1E1D1D" transform="translate(0,0)"/>
<path d="" fill="#0F100D" transform="translate(0,0)"/>
<path d="" fill="#0D0D0C" transform="translate(0,0)"/>
<path d="" fill="#1B1B1C" transform="translate(0,0)"/>
<path d="" fill="#181816" transform="translate(0,0)"/>
<path d="" fill="#1B1B1A" transform="translate(0,0)"/>
<path d="" fill="#0D0E0D" transform="translate(0,0)"/>
<path d="" fill="#0B0A0C" transform="translate(0,0)"/>
<path d="" fill="#201F1F" transform="translate(0,0)"/>
<path d="" fill="#0E0F0F" transform="translate(0,0)"/>
<path d="" fill="#222125" transform="translate(0,0)"/>
<path d="" fill="#0A090A" transform="translate(0,0)"/>
<path d="" fill="#0F0E0C" transform="translate(0,0)"/>
<path d="" fill="#0E0C0C" transform="translate(0,0)"/>
<path d="" fill="#0E0F0E" transform="translate(0,0)"/>
<path d="" fill="#090909" transform="translate(0,0)"/>
<path d="" fill="#090909" transform="translate(0,0)"/>
<path d="" fill="#0A0A0C" transform="translate(0,0)"/>
<path d="" fill="#090B08" transform="translate(0,0)"/>
<path d="" fill="#0D0C0D" transform="translate(0,0)"/>
<path d="" fill="#0E0D0D" transform="translate(0,0)"/>
<path d="" fill="#090A0A" transform="translate(0,0)"/>
<path d="" fill="#0D0E0C" transform="translate(0,0)"/>
<path d="" fill="#151617" transform="translate(0,0)"/>
<path d="" fill="#10100F" transform="translate(0,0)"/>
<path d="" fill="#100E10" transform="translate(0,0)"/>
<path d="" fill="#0D0B0B" transform="translate(0,0)"/>
<path d="" fill="#0A0C0B" transform="translate(0,0)"/>
<path d="" fill="#131117" transform="translate(0,0)"/>
<path d="" fill="#0D0D0D" transform="translate(0,0)"/>
<path d="" fill="#0B0C09" transform="translate(0,0)"/>
<path d="" fill="#3D3E3E" transform="translate(0,0)"/>
<path d="" fill="#0A0D0C" transform="translate(0,0)"/>
<path d="" fill="#0B0A0C" transform="translate(0,0)"/>
<path d="" fill="#151715" transform="translate(0,0)"/>
<path d="" fill="#0C0C0C" transform="translate(0,0)"/>
<path d="" fill="#121412" transform="translate(0,0)"/>
<path d="" fill="#0A0B0A" transform="translate(0,0)"/>
<path d="" fill="#0A0B0A" transform="translate(0,0)"/>
<path d="" fill="#0B0B0B" transform="translate(0,0)"/>
<path d="" fill="#0B0B0A" transform="translate(0,0)"/>
<path d="" fill="#0A080A" transform="translate(0,0)"/>
<path d="" fill="#0D0C0A" transform="translate(0,0)"/>
<path d="" fill="#0D0D0A" transform="translate(0,0)"/>
<path d="" fill="#080909" transform="translate(0,0)"/>
<path d="" fill="#121212" transform="translate(0,0)"/>
<path d="" fill="#19191A" transform="translate(0,0)"/>
<path d="" fill="#08080A" transform="translate(0,0)"/>
<path d="" fill="#1D1D1F" transform="translate(0,0)"/>
<path d="" fill="#0C0D0B" transform="translate(0,0)"/>
<path d="" fill="#141615" transform="translate(0,0)"/>
<path d="" fill="#0C0C0C" transform="translate(0,0)"/>
<path d="" fill="#0C0B0A" transform="translate(0,0)"/>
<path d="" fill="#0C0C0A" transform="translate(0,0)"/>
<path d="" fill="#0C0B0A" transform="translate(0,0)"/>
<path d="" fill="#0C0F0B" transform="translate(0,0)"/>
<path d="" fill="#0B0C0A" transform="translate(0,0)"/>
<path d="" fill="#161515" transform="translate(0,0)"/>
<path d="" fill="#121312" transform="translate(0,0)"/>
<path d="" fill="#090A07" transform="translate(0,0)"/>
<path d="" fill="#0E0C0D" transform="translate(0,0)"/>
<path d="" fill="#090909" transform="translate(0,0)"/>
<path d="" fill="#111415" transform="translate(0,0)"/>
<path d="" fill="#0C0C0D" transform="translate(0,0)"/>
<path d="" fill="#131210" transform="translate(0,0)"/>
<path d="" fill="#0D090A" transform="translate(0,0)"/>
<path d="" fill="#090A09" transform="translate(0,0)"/>
<path d="" fill="#0F0C0F" transform="translate(0,0)"/>
<path d="" fill="#1C1B1C" transform="translate(0,0)"/>
<path d="" fill="#181A19" transform="translate(0,0)"/>
<path d="" fill="#0B0B0C" transform="translate(0,0)"/>
<path d="" fill="#101112" transform="translate(0,0)"/>
<path d="" fill="#0C0D0B" transform="translate(0,0)"/>
<path d="" fill="#0D0D0C" transform="translate(0,0)"/>
<path d="" fill="#0C0C0D" transform="translate(0,0)"/>
<path d="" fill="#0A080A" transform="translate(0,0)"/>
<path d="" fill="#0D0C0C" transform="translate(0,0)"/>
<path d="" fill="#0E0C0B" transform="translate(0,0)"/>
<path d="" fill="#0E0C0D" transform="translate(0,0)"/>
<path d="" fill="#0C0D0E" transform="translate(0,0)"/>
<path d="" fill="#0C0C0C" transform="translate(0,0)"/>
<path d="" fill="#0A0B0A" transform="translate(0,0)"/>
<path d="" fill="#0C0B0C" transform="translate(0,0)"/>
<path d="" fill="#0D0C0B" transform="translate(0,0)"/>
<path d="" fill="#0C0C0B" transform="translate(0,0)"/>
<path d="" fill="#0D0D0A" transform="translate(0,0)"/>
<path d="" fill="#0E0B0C" transform="translate(0,0)"/>
<path d="" fill="#0E0C0D" transform="translate(0,0)"/>
<path d="" fill="#0D0B0C" transform="translate(0,0)"/>
<path d="" fill="#0C090E" transform="translate(0,0)"/>
<path d="" fill="#100F10" transform="translate(0,0)"/>
<path d="" fill="#0C0D0B" transform="translate(0,0)"/>
<path d="" fill="#0B0A0C" transform="translate(0,0)"/>
<path d="" fill="#0C0E0E" transform="translate(0,0)"/>
<path d="" fill="#0D0D0F" transform="translate(0,0)"/>
<path d="" fill="#151316" transform="translate(0,0)"/>
<path d="" fill="#10100F" transform="translate(0,0)"/>
<path d="" fill="#0F100F" transform="translate(0,0)"/>
<path d="" fill="#0D0C0C" transform="translate(0,0)"/>
<path d="" fill="#100D0F" transform="translate(0,0)"/>
<path d="" fill="#0E0E0C" transform="translate(0,0)"/>
<path d="" fill="#131515" transform="translate(0,0)"/>
<path d="" fill="#0B0A0C" transform="translate(0,0)"/>
<path d="" fill="#0E0E0D" transform="translate(0,0)"/>
<path d="" fill="#0C0E0D" transform="translate(0,0)"/>
<path d="" fill="#242324" transform="translate(0,0)"/>
<path d="" fill="#0E100E" transform="translate(0,0)"/>
<path d="" fill="#0D0F0F" transform="translate(0,0)"/>
<path d="" fill="#121413" transform="translate(0,0)"/>
<path d="" fill="#141214" transform="translate(0,0)"/>
<path d="" fill="#171815" transform="translate(0,0)"/>
<path d="" fill="#131214" transform="translate(0,0)"/>
<path d="" fill="#151617" transform="translate(0,0)"/>
<path d="" fill="#131314" transform="translate(0,0)"/>
<path d="" fill="#171614" transform="translate(0,0)"/>
<path d="" fill="#171616" transform="translate(0,0)"/>
<path d="" fill="#161616" transform="translate(0,0)"/>
<path d="" fill="#1B1B1D" transform="translate(0,0)"/>
<path d="" fill="#1A1C19" transform="translate(0,0)"/>
<path d="" fill="#191718" transform="translate(0,0)"/>
<path d="" fill="#222223" transform="translate(0,0)"/>
<path d="" fill="#1C1A1A" transform="translate(0,0)"/>
<path d="" fill="#1D1B1B" transform="translate(0,0)"/>
<path d="" fill="#1F1D1C" transform="translate(0,0)"/>
<path d="" fill="#1E1F1F" transform="translate(0,0)"/>
<path d="" fill="#1B1F21" transform="translate(0,0)"/>
</svg>
